<svg width="61" height="61" viewBox="0 0 61 61" fill="none" xmlns="http://www.w3.org/2000/svg">
<circle cx="30.4988" cy="30.5" r="30" fill="#FCFCFF" stroke="#EFEFFF"/>
<path d="M16.0007 15.9999H45.4922V44.9999H16.0007V15.9999Z" fill="url(#paint0_linear_1_412)"/>
<path d="M18.3462 18.3061H43.147V42.6938H18.3462V18.3061Z" fill="url(#paint1_linear_1_412)"/>
<path d="M23.1277 24.1734C23.1277 24.1734 24.9923 24.1244 26.5272 24.1244C28.0783 24.1244 29.1842 24.4893 29.9267 25.1305C30.6364 25.7365 31.1149 26.7695 31.1149 27.9454C31.1149 29.1213 30.7518 30.0835 30.0916 30.76C29.2335 31.6331 28.2335 32.1499 26.5272 32.2213C26.0559 32.2411 25.6196 32.2458 25.6196 32.2458V36.0683H23.1276L23.1277 24.1734ZM25.6195 30.128C25.8902 30.1544 26.0599 30.1417 26.4612 30.1369C27.7979 30.1209 28.6228 29.308 28.6228 28.0787C28.6228 26.9743 27.9426 26.0676 26.6594 26.0206C26.1479 26.0019 25.6195 26.0206 25.6195 26.0206V30.128Z" fill="url(#paint2_linear_1_412)"/>
<path d="M32.066 33.4054C32.5683 33.7136 33.7534 34.1751 34.5613 34.1751C35.3867 34.1751 35.7275 33.8842 35.7275 33.4307C35.7275 32.9767 35.4583 32.4997 34.4353 32.1548C32.6226 31.5376 31.9226 30.7987 31.9408 29.7645C31.9408 28.0942 33.3404 26.8418 35.512 26.8418C36.535 26.8418 37.3522 27.1763 37.8901 27.4484V29.453C37.4949 29.235 36.3555 28.7482 35.6019 28.7482C34.9374 28.7482 34.5608 29.0205 34.5608 29.4739C34.5608 29.8915 34.902 30.1093 35.9788 30.4907C37.6475 31.0715 38.3475 31.9244 38.3652 33.2314C38.3652 34.8834 37.0918 36.197 34.5608 36.1173C33.6922 36.09 32.7299 35.7466 32.0658 35.3841L32.066 33.4054Z" fill="url(#paint3_linear_1_412)"/>
<defs>
<linearGradient id="paint0_linear_1_412" x1="23.1677" y1="14.4855" x2="34.4727" y2="38.3737" gradientUnits="userSpaceOnUse">
<stop stop-color="#A0CBFF"/>
<stop offset="0.394" stop-color="#A0CBFE"/>
<stop offset="0.583" stop-color="#8EC2FC"/>
<stop offset="0.784" stop-color="#83BCFB"/>
<stop offset="1" stop-color="#7FBAFB"/>
</linearGradient>
<linearGradient id="paint1_linear_1_412" x1="27.1805" y1="18.6498" x2="33.5703" y2="39.8839" gradientUnits="userSpaceOnUse">
<stop stop-color="#090058"/>
<stop offset="1" stop-color="#070033"/>
</linearGradient>
<linearGradient id="paint2_linear_1_412" x1="19.6515" y1="15.7565" x2="30.9565" y2="39.6445" gradientUnits="userSpaceOnUse">
<stop stop-color="#A0CBFF"/>
<stop offset="0.394" stop-color="#A0CBFE"/>
<stop offset="0.583" stop-color="#8EC2FC"/>
<stop offset="0.784" stop-color="#83BCFB"/>
<stop offset="1" stop-color="#7FBAFB"/>
</linearGradient>
<linearGradient id="paint3_linear_1_412" x1="26.0909" y1="12.6374" x2="37.4408" y2="36.62" gradientUnits="userSpaceOnUse">
<stop stop-color="#A0CBFF"/>
<stop offset="0.394" stop-color="#A0CBFE"/>
<stop offset="0.583" stop-color="#8EC2FC"/>
<stop offset="0.784" stop-color="#83BCFB"/>
<stop offset="1" stop-color="#7FBAFB"/>
</linearGradient>
</defs>
</svg>
